<svg width="215" height="103" viewBox="0 0 215 103" fill="none" xmlns="http://www.w3.org/2000/svg">
<g filter="url(#filter0_dd_298_814)">
<path d="M21.4946 37.6156C21.4946 25.7444 31.1181 16.121 42.9893 16.121H59.1102C70.9814 16.121 80.6048 25.7444 80.6048 37.6156V53.7366C80.6048 65.6077 70.9814 75.2312 59.1102 75.2312H42.9893C31.1181 75.2312 21.4946 65.6077 21.4946 53.7366V37.6156Z" fill="#5149E9" shape-rendering="crispEdges"/>
<path fill-rule="evenodd" clip-rule="evenodd" d="M58.0404 46.2863C56.2274 47.0133 54.2704 47.4616 52.2236 47.5778C51.8706 47.5978 51.5149 47.608 51.1568 47.608C50.7988 47.608 50.4431 47.5978 50.0901 47.5778C48.0428 47.4616 46.0854 47.013 44.272 46.2858C40.4666 44.7597 37.2956 42.0062 35.2598 38.5211C38.433 33.0889 44.3639 29.4341 51.1568 29.4341C57.9498 29.4341 63.8807 33.0889 67.0539 38.5211C65.0178 42.0066 61.8464 44.7603 58.0404 46.2863Z" fill="#FAFBFC"/>
<path d="M44.2717 47.7005C43.8333 47.5246 43.4033 47.3325 42.9825 47.1249C41.615 48.0789 40.4589 49.2671 39.5884 50.6226C41.068 52.9267 43.3727 54.7472 46.1385 55.7561C47.4564 56.2369 48.8791 56.5335 50.3671 56.6103H51.9177C53.4053 56.5335 56.0201 57.993 52.2232 61.676C54.9895 60.6671 61.2166 52.927 62.6964 50.6226C61.8284 49.2709 60.6764 48.0857 59.3139 47.1331C58.898 47.3378 58.4731 47.5273 58.0401 47.701C56.2271 48.4279 54.2701 48.8762 52.2232 48.9924C51.8702 49.0124 51.5146 49.0226 51.1565 49.0226C50.7984 49.0226 50.4428 49.0124 50.0898 48.9924C48.0424 48.8762 46.085 48.4277 44.2717 47.7005Z" fill="#FAFBFC"/>
<rect x="43.4912" y="36.1965" width="15.3647" height="5.43403" rx="2.71702" fill="#161822"/>
<ellipse cx="55.4108" cy="38.8834" rx="1.00602" ry="0.996239" fill="#04FED1"/>
<ellipse cx="51.1423" cy="52.2873" rx="1.00602" ry="0.996239" fill="#161822"/>
<ellipse cx="47.1188" cy="38.8834" rx="1.00602" ry="0.996239" fill="#04FED1"/>
<ellipse cx="47.1188" cy="52.2873" rx="1.00602" ry="0.996239" fill="#161822"/>
<ellipse cx="55.1672" cy="52.2873" rx="1.00602" ry="0.996239" fill="#161822"/>
</g>
<path d="M103.728 55.999C103.728 55.6228 103.937 55.3703 104.357 55.2413L105.324 55.0317C105.582 54.9673 105.775 54.8652 105.904 54.7254C106.033 54.575 106.098 54.3869 106.098 54.1612V36.6216C106.098 36.3959 106.033 36.2132 105.904 36.0735C105.775 35.923 105.582 35.8156 105.324 35.7511L104.357 35.5415C103.937 35.4125 103.728 35.16 103.728 34.7838C103.728 34.5689 103.798 34.4023 103.937 34.2841C104.088 34.1658 104.314 34.1067 104.614 34.1067H113.094C115.093 34.1067 116.904 34.4023 118.527 34.9934C120.16 35.5737 121.563 36.4013 122.734 37.476C123.917 38.54 124.819 39.8082 125.443 41.2806C126.077 42.7422 126.394 44.365 126.394 46.1491C126.394 48.1911 125.921 50.0074 124.975 51.598C124.03 53.1778 122.675 54.4192 120.913 55.3219C119.15 56.2247 117.044 56.6761 114.593 56.6761H104.614C104.314 56.6761 104.088 56.617 103.937 56.4988C103.798 56.3698 103.728 56.2032 103.728 55.999ZM114.174 55.193C115.593 55.193 116.834 54.8598 117.898 54.1935C118.962 53.5164 119.79 52.5008 120.381 51.1466C120.972 49.7817 121.267 48.0675 121.267 46.004C121.267 44.3919 121.069 42.9464 120.671 41.6675C120.273 40.3778 119.693 39.2816 118.93 38.3788C118.178 37.476 117.269 36.7882 116.205 36.3153C115.141 35.8317 113.938 35.5899 112.594 35.5899H111.047V53.8066C111.047 54.2794 111.181 54.6287 111.45 54.8544C111.729 55.0801 112.138 55.193 112.675 55.193H114.174ZM143.387 47.2614C143.387 47.7881 143.236 48.1965 142.935 48.4866C142.634 48.7661 142.199 48.9058 141.629 48.9058H131.57V47.7612H138.131C138.647 47.7612 138.905 47.5301 138.905 47.068C138.905 45.5956 138.647 44.4833 138.131 43.7309C137.615 42.9786 136.928 42.6025 136.068 42.6025C135.412 42.6025 134.826 42.8067 134.311 43.2151C133.805 43.6235 133.408 44.2146 133.118 44.9884C132.838 45.7514 132.698 46.6811 132.698 47.7773C132.698 49.873 133.182 51.4421 134.149 52.4846C135.127 53.5271 136.417 54.0484 138.018 54.0484C138.986 54.0484 139.829 53.8495 140.549 53.4519C141.269 53.0542 141.812 52.49 142.178 51.7592C142.35 51.5657 142.489 51.4368 142.597 51.3723C142.704 51.2971 142.812 51.2594 142.919 51.2594C143.07 51.2594 143.182 51.3293 143.258 51.469C143.333 51.6087 143.365 51.7753 143.354 51.9688C143.311 52.893 142.989 53.7421 142.387 54.5159C141.796 55.2897 140.995 55.9077 139.985 56.3698C138.975 56.8319 137.814 57.063 136.503 57.063C134.977 57.063 133.623 56.7459 132.441 56.1119C131.258 55.4778 130.329 54.5911 129.652 53.4519C128.985 52.3019 128.652 50.9585 128.652 49.4217C128.652 47.8096 128.969 46.3802 129.603 45.1335C130.248 43.8868 131.167 42.9142 132.36 42.2156C133.564 41.5063 134.998 41.1516 136.664 41.1516C138.072 41.1516 139.276 41.4149 140.275 41.9415C141.286 42.4574 142.054 43.1775 142.581 44.1017C143.118 45.0153 143.387 46.0685 143.387 47.2614ZM154.105 56.7889H152.477C152.165 56.7889 151.902 56.7137 151.687 56.5632C151.472 56.402 151.3 56.1602 151.171 55.8378L146.415 43.9728C146.254 43.5751 146.114 43.3118 145.996 43.1828C145.889 43.0431 145.754 42.9518 145.593 42.9088L145.061 42.7637C144.868 42.6992 144.733 42.6186 144.658 42.5219C144.583 42.4252 144.545 42.2962 144.545 42.135C144.545 41.9415 144.615 41.7911 144.755 41.6836C144.895 41.5761 145.083 41.5224 145.319 41.5224H152.541C153.068 41.5224 153.331 41.7266 153.331 42.135C153.331 42.2962 153.283 42.4252 153.186 42.5219C153.089 42.6186 152.934 42.6938 152.719 42.7476L152.106 42.8765C151.601 42.984 151.3 43.1613 151.203 43.4085C151.107 43.645 151.176 44.0695 151.413 44.6821L155.185 54.4836L154.202 55.1446L158.103 44.7304C158.34 44.1071 158.404 43.6665 158.297 43.4085C158.2 43.1506 157.904 42.9733 157.41 42.8765L156.797 42.7476C156.582 42.6938 156.427 42.6186 156.33 42.5219C156.233 42.4252 156.185 42.2962 156.185 42.135C156.185 41.9415 156.255 41.7911 156.394 41.6836C156.534 41.5761 156.722 41.5224 156.959 41.5224H161.311C161.558 41.5224 161.752 41.5761 161.892 41.6836C162.031 41.7911 162.101 41.9415 162.101 42.135C162.101 42.2747 162.058 42.3983 161.972 42.5058C161.897 42.6132 161.746 42.6938 161.521 42.7476L161.021 42.8604C160.806 42.9142 160.613 43.07 160.441 43.3279C160.279 43.5751 160.081 44.005 159.844 44.6176L155.411 55.9184C155.271 56.2623 155.088 56.4934 154.863 56.6116C154.637 56.7298 154.385 56.7889 154.105 56.7889ZM171.325 41.1516C172.959 41.1516 174.393 41.4901 175.629 42.1672C176.876 42.8443 177.843 43.7847 178.531 44.9884C179.23 46.1813 179.579 47.5677 179.579 49.1476C179.579 50.6522 179.219 52.0064 178.499 53.2101C177.79 54.403 176.801 55.3434 175.533 56.0312C174.275 56.7191 172.814 57.063 171.148 57.063C169.514 57.063 168.079 56.7244 166.843 56.0474C165.607 55.3703 164.64 54.4353 163.942 53.2423C163.243 52.0386 162.894 50.6522 162.894 49.0831C162.894 47.557 163.248 46.1975 163.958 45.0045C164.678 43.8116 165.667 42.8712 166.924 42.1833C168.192 41.4955 169.659 41.1516 171.325 41.1516ZM172.421 55.5315C173.152 55.4133 173.738 55.0747 174.178 54.5159C174.63 53.9463 174.915 53.1671 175.033 52.1783C175.151 51.1788 175.087 49.9751 174.839 48.5672C174.603 47.1593 174.248 46.004 173.775 45.1012C173.313 44.1877 172.765 43.5267 172.131 43.1184C171.497 42.71 170.804 42.5702 170.052 42.6992C169.321 42.8067 168.735 43.1452 168.294 43.7148C167.854 44.2737 167.574 45.0529 167.456 46.0524C167.338 47.0411 167.402 48.2448 167.649 49.6635C167.886 51.0499 168.235 52.1998 168.697 53.1134C169.17 54.0269 169.724 54.6878 170.358 55.0962C170.992 55.4939 171.68 55.639 172.421 55.5315ZM187.573 48.1803C187.573 46.6327 187.793 45.3377 188.234 44.2952C188.675 43.2527 189.25 42.4681 189.959 41.9415C190.679 41.4149 191.442 41.1516 192.248 41.1516C193.248 41.1516 194.021 41.4418 194.569 42.0221C195.118 42.5917 195.392 43.4085 195.392 44.4725C195.392 45.4183 195.193 46.1276 194.795 46.6005C194.398 47.0626 193.887 47.2937 193.264 47.2937C192.64 47.2937 192.162 47.1271 191.829 46.7939C191.507 46.45 191.34 45.9771 191.329 45.3753V44.7949C191.318 44.451 191.238 44.1985 191.087 44.0372C190.948 43.8653 190.706 43.7793 190.362 43.7793C189.986 43.7793 189.626 43.9351 189.282 44.2468C188.938 44.5585 188.658 45.0367 188.444 45.6816C188.229 46.3157 188.121 47.1271 188.121 48.1159L187.573 48.1803ZM187.879 42.1833L188.121 46.004V54.2418C188.121 54.532 188.175 54.7469 188.282 54.8867C188.401 55.0264 188.615 55.1231 188.927 55.1768L190.33 55.3864C190.555 55.4294 190.722 55.5046 190.829 55.6121C190.948 55.7196 191.007 55.8647 191.007 56.0474C191.007 56.2516 190.937 56.4074 190.797 56.5149C190.657 56.6223 190.453 56.6761 190.185 56.6761H182.688C182.42 56.6761 182.215 56.6223 182.076 56.5149C181.947 56.3967 181.882 56.2462 181.882 56.0635C181.882 55.913 181.925 55.7894 182.011 55.6927C182.108 55.5852 182.253 55.4993 182.447 55.4348L183.091 55.2736C183.285 55.2091 183.425 55.107 183.511 54.9673C183.607 54.8168 183.656 54.5857 183.656 54.2741V44.7949C183.656 44.5477 183.613 44.3704 183.527 44.2629C183.451 44.1447 183.328 44.0695 183.156 44.0372L182.285 43.9728C182.103 43.9405 181.968 43.8814 181.882 43.7954C181.807 43.6987 181.769 43.5805 181.769 43.4408C181.769 43.2796 181.818 43.1506 181.915 43.0539C182.022 42.9464 182.205 42.8443 182.463 42.7476L185.574 41.6836C186.047 41.5009 186.396 41.3827 186.622 41.3289C186.858 41.2644 187.041 41.2322 187.17 41.2322C187.385 41.2322 187.546 41.3074 187.654 41.4579C187.761 41.5976 187.836 41.8394 187.879 42.1833ZM206.684 54.6771V54.3708L206.393 54.3224V44.6176C206.393 43.8653 206.2 43.2849 205.813 42.8765C205.437 42.4574 204.91 42.2478 204.233 42.2478C203.588 42.2478 203.094 42.3875 202.75 42.667C202.406 42.9464 202.234 43.2796 202.234 43.6665V45.0851C202.234 45.7192 202.019 46.2136 201.589 46.5682C201.17 46.9229 200.579 47.1002 199.816 47.1002C199.171 47.1002 198.682 46.9444 198.349 46.6327C198.016 46.3211 197.849 45.8912 197.849 45.343C197.849 44.6767 198.118 44.0265 198.655 43.3924C199.204 42.7476 200.01 42.2156 201.074 41.7964C202.148 41.3773 203.465 41.1677 205.023 41.1677C206.979 41.1677 208.43 41.5654 209.376 42.3607C210.332 43.156 210.811 44.2307 210.811 45.5849V53.9678C210.811 54.2794 210.87 54.5105 210.988 54.661C211.117 54.8114 211.294 54.8867 211.52 54.8867C211.756 54.8867 211.934 54.8329 212.052 54.7254C212.17 54.6072 212.272 54.4836 212.358 54.3547C212.412 54.2902 212.466 54.2364 212.519 54.1935C212.584 54.1397 212.659 54.1129 212.745 54.1129C212.863 54.1129 212.949 54.1612 213.003 54.2579C213.068 54.3439 213.1 54.4568 213.1 54.5965C213.1 54.9404 212.976 55.3058 212.729 55.6927C212.482 56.0689 212.111 56.3913 211.617 56.66C211.122 56.9286 210.51 57.063 209.779 57.063C208.822 57.063 208.065 56.8534 207.506 56.4343C206.958 56.0044 206.684 55.4187 206.684 54.6771ZM197.14 53.3229C197.14 52.001 197.726 50.937 198.897 50.131C200.079 49.3142 201.745 48.9058 203.895 48.9058C204.593 48.9058 205.217 48.9649 205.765 49.0831C206.313 49.2013 206.791 49.3572 207.2 49.5506L206.861 50.5018C206.496 50.3298 206.119 50.1955 205.732 50.0987C205.356 50.002 204.943 49.9536 204.491 49.9536C203.621 49.9536 202.938 50.1847 202.444 50.6468C201.949 51.109 201.702 51.7538 201.702 52.5814C201.702 53.3982 201.912 54.0269 202.331 54.4675C202.761 54.8974 203.314 55.1124 203.991 55.1124C204.55 55.1124 205.093 54.9834 205.62 54.7254C206.146 54.4675 206.587 54.1075 206.942 53.6453L207.28 54.4836C206.7 55.3112 205.921 55.9506 204.943 56.402C203.965 56.8427 202.922 57.063 201.815 57.063C200.439 57.063 199.316 56.7191 198.446 56.0312C197.575 55.3434 197.14 54.4406 197.14 53.3229Z" fill="white"/>
<defs>
<filter id="filter0_dd_298_814" x="5.72205e-06" y="4.29153e-06" width="102.1" height="102.099" filterUnits="userSpaceOnUse" color-interpolation-filters="sRGB">
<feFlood flood-opacity="0" result="BackgroundImageFix"/>
<feColorMatrix in="SourceAlpha" type="matrix" values="0 0 0 0 0 0 0 0 0 0 0 0 0 0 0 0 0 0 127 0" result="hardAlpha"/>
<feOffset dy="5.37366"/>
<feGaussianBlur stdDeviation="10.7473"/>
<feComposite in2="hardAlpha" operator="out"/>
<feColorMatrix type="matrix" values="0 0 0 0 0.486275 0 0 0 0 0.360784 0 0 0 0 0.988235 0 0 0 0.3 0"/>
<feBlend mode="normal" in2="BackgroundImageFix" result="effect1_dropShadow_298_814"/>
<feColorMatrix in="SourceAlpha" type="matrix" values="0 0 0 0 0 0 0 0 0 0 0 0 0 0 0 0 0 0 127 0" result="hardAlpha"/>
<feMorphology radius="4.03024" operator="dilate" in="SourceAlpha" result="effect2_dropShadow_298_814"/>
<feOffset/>
<feComposite in2="hardAlpha" operator="out"/>
<feColorMatrix type="matrix" values="0 0 0 0 0.486275 0 0 0 0 0.360784 0 0 0 0 0.988235 0 0 0 0.25 0"/>
<feBlend mode="normal" in2="effect1_dropShadow_298_814" result="effect2_dropShadow_298_814"/>
<feBlend mode="normal" in="SourceGraphic" in2="effect2_dropShadow_298_814" result="shape"/>
</filter>
</defs>
</svg>
